						<svg id="svglogo" data-name="svglogo" viewBox="0 0 330 270" xmlns="http://www.w3.org/2000/svg">
    <defs>
        <style>
            .cls-1 {
                fill: #1c4d71;
            }

            .cls-2 {
                fill: none;
                stroke: #edcc24;
                stroke-miterlimit: 10;
            }

            .cls-3 {
                fill: #fff;
            }
        </style>
    </defs>
    
    <path transform="translate(-426.09 -395.53)" d="m501.5 640.89a10.6 10.6 0 0 0 10.4 -8.55l25.16-127.64-70.67-0.61 24.71 128.22a10.59 10.59 0 0 0 10.4 8.58z"></path>
    <path d="M39.73,88.78H112.3a3.86,3.86,0,0,1,3.86,3.86v11.13a6.27,6.27,0,0,1-6.27,6.27H42.13a6.27,6.27,0,0,1-6.27-6.27V92.65a3.87,3.87,0,0,1,3.87-3.87Z"></path>
    <path transform="translate(-426.09 -395.53)" d="M597.62,434c.82,1.64-10.11,31.59-22.08,39.83-10.64,7.33-8.81,5.44-25,7.48-2.3.29-7.39,2.36-8.56,6.69l-78.37-1.64c-6.51-10.61-4-25.28-3.85-26a35.24,35.24,0,0,1,12.08-18.34c13.08-10.68,26.43-10.3,43-11.64s30-17.79,30.88-16.11c8.5,15.82,3.55,25.59,4.92,27.3a87,87,0,0,1,30-.89c10.59,1.49,17-6.72,17-6.72"></path>
    <path class="cls-2" transform="translate(-426.09 -395.53)" d="m477.36 480.17"></path>
    <path class="cls-2" transform="translate(-426.09 -395.53)" d="m517.68 480.3"></path>
    <path class="cls-3" transform="translate(-426.09 -395.53)" d="M469.05,480.32c-5-8.12-1.47-18.48-1.34-19a27,27,0,0,1,9.24-14c10-8.17,21.12-8.58,33.78-9.41,17.55-1.14,30.51-13.21,31.18-11.91,5.14,10-7.32,24.74-6.27,26a63.36,63.36,0,0,1,24.28-4.58c9.39.12,25.84-.34,25.84-.34.63,1.26-10,17.1-19,23.61-4,2.91-12.75,3.9-18.85,5.2-3.67.78-8.38,3.42-9.12,4.42l-10.51,0c5-5.68,21.52-11.11,24.39-13.17,7.45-5.37,13.07-14.14,12.64-15.11,0,0-16.15,3.85-26.59,3.85-9.31,0-16.26-.27-16.26-.27-.71-1,10.82-11,9.85-16.81-.18-1.08-14.61,4.37-26.4,6.52-9.35,1.71-16.34,3.44-23.16,9.7a20.83,20.83,0,0,0-6.29,10.76c-.09.39-1.76,8.34,1.64,14.56"></path>
    <path class="cls-3" transform="translate(-426.09 -395.53)" d="M486,480.32c-1.28-2.76-3.8-9.39-1.78-15.59,4.77-14.6,30.58-14,30.58-14s-18.63,16.57-17.3,18.5c.76,1.11,7.31-3.59,17.9-6.41a59.32,59.32,0,0,1,28.86,0c.12,1.36-9.3,1.18-17.9,8.42a32.51,32.51,0,0,0-7.38,9"></path>
    <path class="cls-3" d="M46.38,92.47h58.49a2.82,2.82,0,0,1,2.82,2.82v6.56a5.23,5.23,0,0,1-5.23,5.23H48.79a5.23,5.23,0,0,1-5.23-5.23V95.3a2.83,2.83,0,0,1,2.83-2.83Z"></path>
    <rect class="cls-3" transform="translate(-623.76 -72.86) rotate(-30)" x="477.94" y="524.49" width="50.68" height="11.41" rx="4.24"></rect>
    <rect class="cls-3" transform="translate(-619.37 -82.82) rotate(-30)" x="476.65" y="511.33" width="20.49" height="11.41" rx="4.24"></rect>
    <rect class="cls-3" transform="translate(-634.98 -69.6) rotate(-30)" x="483.67" y="547.06" width="40.18" height="11.41" rx="4.24"></rect>
    <path class="cls-2" transform="translate(-426.09 -395.53)" d="m525.91 521.28"></path>
    <rect class="cls-3" transform="translate(-646.38 -66.78) rotate(-30)" x="488.55" y="569.75" width="29.55" height="11.41" rx="4.24"></rect>
    <rect class="cls-3" transform="translate(-658.28 -64.25) rotate(-30)" x="491.85" y="593.21" width="20.49" height="11.41" rx="4.24"></rect>
    <rect class="cls-3" transform="translate(546.06 865.75) rotate(182.91)" x="496.39" y="612.59" width="11.41" height="11.41" rx="4.24"></rect>
    <path class="cls-2" transform="translate(-426.09 -395.53)" d="m781.37 538.85"></path>
    <path transform="translate(-426.09 -395.53)" d="M754.84,438.57c-3.58-4.7-9.29.45-48.89,2.24-50.8,2.29-51-.09-77.64,6.15-16.22,3.8-44.81,16.64-59.29,43-8.61,15.66-11.15,22.9-18.68,31.54-7.87,9-12.48,10.07-25.62,17-8.26,4.36-14.81,14-14.54,24.5.26,10.11,7.81,20.15,13.2,19.35,2.44-.36,2.49-3.61,5.15-4.25,0,0,12.3,12.86,18.12,11.86,7.64-1.32,4.58-14.14,6-15.89,0,0,12.86,8.28,21.14,5.48,7-2.36,2.58-17.89,2.8-19.13,0,0,23.38,17.23,33.22,10.18,7.75-5.54-6.37-19.57-4.13-21.81,1.22-1.22,33.71,15.06,41.72,4.47,4.16-5.48-9.51-19.35-10.62-21-1-1.46,50.11,13.32,60.4-.67,7-9.54-32.21-21.59-32-23.94,0,0,67.37,2.49,69.13-11.63,1.35-10.74-33.67-13.87-41.61-18.94-1.14-.72,23.1-2.09,44.3-14.85C751.51,453.47,758.81,443.78,754.84,438.57Z"></path>
    <path class="cls-3" transform="translate(-426.09 -395.53)" d="M528.53,544.66c-1.1.46-10.16,4.5-11.85,13.42-1.54,8.09,3.71,15,5.92,14.62.94-.18,1.72-9.82,2.25-13.74a14.62,14.62,0,0,1,.37-1.84Z"></path>
    <path class="cls-3" transform="translate(-426.09 -395.53)" d="M542.17,541.45c-1.18,1.14-13.86,11.84-11.69,24.16,2,11.17,12.12,17.57,14.77,15.94,1-.61-1.46-10.65-2.8-16.52a26.66,26.66,0,0,1-.65-6.48Z"></path>
    <path class="cls-3" transform="translate(-426.09 -395.53)" d="m555.67 534.52c-0.82-0.52-7.18 14.09-3.87 24.17 3.79 11.56 13.34 14 18.64 14.53 2.43 0.23-0.68-8.15-6-21.55-4.67-11.93-7.93-16.67-8.77-17.15z"></path>
    <path class="cls-3" transform="translate(-426.09 -395.53)" d="m564.25 523.85c-1.86 1.19 3.17 20.12 11.63 28.64 8.78 8.84 28.79 14.69 30.36 12.6 1-1.36-7.24-13.57-16.63-23-5.61-5.65-23.77-19.25-25.36-18.24z"></path>
    <path class="cls-3" transform="translate(-426.09 -395.53)" d="M571,511.84c.47-1.14,21.93-.82,40.57,10.37,15.14,9.08,31.48,24,29.16,27.07-1,1.38-30.13-1.42-40.12-10.07C581.63,522.82,570.07,514,571,511.84Z"></path>
    <path class="cls-3" transform="translate(-426.09 -395.53)" d="m582.07 500.36c0.3-2.27 24.62-3 49.75 2.38 29.16 6.28 58.8 22.85 58 26.48-0.67 3.14-29.87 4.28-55.11-4.47-16.71-5.82-19.82-10.52-33.71-16.75-12.65-5.61-19.1-6.34-18.93-7.64z"></path>
    <path class="cls-3" transform="translate(-426.09 -395.53)" d="M585,487.75a192.06,192.06,0,0,1,54.89-10.59c44.28-1.89,86.67,15.67,86.66,18.35,0,5.5-34.48,7.08-58.47,5.22a207.85,207.85,0,0,1-42.81-7.93,82,82,0,0,0-16.65-3.11Z"></path>
    <path class="cls-3" transform="translate(-426.09 -395.53)" d="M591.69,474.33c12.24-9.7,21-15.36,44.27-21.3,49.1-12.51,62.36-1.2,110.41-9.43,0,0-18.64,19.84-41.76,23.42a323.93,323.93,0,0,1-68.53,2.86,95.28,95.28,0,0,0-20.11.83Z"></path>
</svg>
